<?xml version="1.0" encoding="utf-8"?>
<!-- Generator: Adobe Illustrator 16.0.0, SVG Export Plug-In . SVG Version: 6.00 Build 0)  -->
<!DOCTYPE svg PUBLIC "-//W3C//DTD SVG 1.1//EN" "http://www.w3.org/Graphics/SVG/1.1/DTD/svg11.dtd">
<svg version="1.1" xmlns="http://www.w3.org/2000/svg" xmlns:xlink="http://www.w3.org/1999/xlink" x="0px" y="0px"
	 width="232.517px" height="229.963px" viewBox="600.06 0 232.517 229.963" enable-background="new 600.06 0 232.517 229.963"
	 xml:space="preserve">
<g id="Calque_1">
</g>
<g id="Calque_2">
	<circle fill="#47D3C2" cx="716.184" cy="114.937" r="115.175"/>
	<path fill="#FFFFFF" d="M788.832,138.869l-2-3.464l-13.267,7.658l0.004-56.482l12.267,7.083l2-3.464l-13.403-7.739l7.954-4.592
		l-1-1.732l-7.817,4.513l0.001-16.314h-4l-0.001,15.317l-48.914-28.244l12.269-7.083l-2-3.464l-13.139,7.585v-9.032h-2v9.181
		l-14.395-8.312l-2,3.464l13.266,7.66l-48.917,28.239l0.001-14.167h-4l-0.001,15.17l-7.821-4.516l-1,1.732l7.951,4.591
		l-14.396,8.311l2,3.464l13.267-7.659l-0.004,56.481l-12.267-7.083l-2,3.464l13.139,7.586l-7.822,4.516l1,1.732l7.95-4.59
		l-0.001,16.622h4l0.001-15.319l48.915,28.244l-12.27,7.083l2,3.464l13.404-7.738v9.184h2v-9.028l14.13,8.159l2-3.464l-13.265-7.659
		l48.915-28.238l-0.001,14.166h4l0.001-15.479l7.954,4.592l1-1.732l-7.817-4.513L788.832,138.869z M717.785,112.857V54.37
		l50.647,29.245L717.785,112.857z M769.569,85.269l-0.004,58.791l-50.912-29.394L769.569,85.269z M715.785,113.01L664.87,83.614
		l50.915-29.393V113.01z M714.652,114.666l-50.917,29.397l0.004-58.792L714.652,114.666z M715.785,116.322v59.099l-51.178-29.551
		L715.785,116.322z M717.785,116.475l50.917,29.396l-50.917,29.394V116.475z"/>
</g>
</svg>
