<?xml version="1.0" encoding="utf-8"?>
<!-- Generator: Adobe Illustrator 16.0.0, SVG Export Plug-In . SVG Version: 6.00 Build 0)  -->
<!DOCTYPE svg PUBLIC "-//W3C//DTD SVG 1.1//EN" "http://www.w3.org/Graphics/SVG/1.1/DTD/svg11.dtd">
<svg version="1.1" xmlns="http://www.w3.org/2000/svg" xmlns:xlink="http://www.w3.org/1999/xlink" x="0px" y="0px"
	 width="232.516px" height="229.963px" viewBox="0 0 232.516 229.963" enable-background="new 0 0 232.516 229.963"
	 xml:space="preserve">
<g id="Calque_1">
	<g>
		<circle fill="#FFC022" cx="117.49" cy="114.937" r="115.027"/>
		<g>
			<path fill="#FFFFFF" d="M112.49,153.469c-28.08,0-50.923-22.843-50.923-50.922S84.41,51.625,112.49,51.625
				c28.078,0,50.92,22.843,50.92,50.922S140.568,153.469,112.49,153.469z M112.49,55.625c-25.875,0-46.923,21.049-46.923,46.922
				c0,25.873,21.049,46.922,46.923,46.922c25.873,0,46.922-21.049,46.922-46.922C159.412,76.674,138.363,55.625,112.49,55.625z"/>
		</g>
		<g>
			
				<rect x="139.099" y="154.147" transform="matrix(0.7071 0.7071 -0.7071 0.7071 158.4294 -70.173)" fill="#FFFFFF" width="49.637" height="4"/>
		</g>
	</g>
</g>
<g id="Calque_2">
</g>
</svg>
