<?xml version="1.0" encoding="utf-8"?>
<!-- Generator: Adobe Illustrator 16.0.0, SVG Export Plug-In . SVG Version: 6.00 Build 0)  -->
<!DOCTYPE svg PUBLIC "-//W3C//DTD SVG 1.1//EN" "http://www.w3.org/Graphics/SVG/1.1/DTD/svg11.dtd">
<svg version="1.1" xmlns="http://www.w3.org/2000/svg" xmlns:xlink="http://www.w3.org/1999/xlink" x="0px" y="0px"
	 width="139.384px" height="139.385px" viewBox="470.199 935.666 139.384 139.385"
	 enable-background="new 470.199 935.666 139.384 139.385" xml:space="preserve">
<g id="Calque_1">
	<path fill="#F4551E" d="M609.583,1005.358c0-38.486-31.202-69.691-69.691-69.691s-69.692,31.205-69.692,69.691
		c0,38.489,31.203,69.693,69.692,69.693S609.583,1043.847,609.583,1005.358z"/>
	<path fill="#FFFFFF" d="M570.075,1003.204h-26.311v-28.029c0-2.137-1.735-3.873-3.873-3.873c-2.137,0-3.872,1.736-3.872,3.873
		v28.029h-26.312c-2.138,0-3.872,1.735-3.872,3.873c0,2.137,1.734,3.872,3.872,3.872h26.312v24.593c0,2.14,1.735,3.873,3.872,3.873
		c2.138,0,3.873-1.733,3.873-3.873v-24.593h26.311c2.139,0,3.873-1.735,3.873-3.872
		C573.948,1004.94,572.214,1003.204,570.075,1003.204z"/>
</g>
<g id="Calque_2">
</g>
</svg>
