<?xml version="1.0" encoding="utf-8"?>
<!-- Generator: Adobe Illustrator 16.0.0, SVG Export Plug-In . SVG Version: 6.00 Build 0)  -->
<!DOCTYPE svg PUBLIC "-//W3C//DTD SVG 1.1//EN" "http://www.w3.org/Graphics/SVG/1.1/DTD/svg11.dtd">
<svg version="1.1" xmlns="http://www.w3.org/2000/svg" xmlns:xlink="http://www.w3.org/1999/xlink" x="0px" y="0px"
	 width="232.517px" height="229.963px" viewBox="321.032 -278.986 232.517 229.963"
	 enable-background="new 321.032 -278.986 232.517 229.963" xml:space="preserve">
<g id="Calque_1">
	<circle fill="#43317C" cx="437.29" cy="-164.05" r="115.027"/>
	<g>
		<path fill="#FFFFFF" d="M437.766-167.911c-17.883,0-32.432-14.549-32.432-32.432s14.549-32.432,32.432-32.432
			c17.884,0,32.433,14.549,32.433,32.432S455.65-167.911,437.766-167.911z M437.766-228.775c-15.677,0-28.432,12.754-28.432,28.432
			s12.755,28.432,28.432,28.432c15.678,0,28.433-12.754,28.433-28.432S453.444-228.775,437.766-228.775z"/>
	</g>
	<g>
		<path fill="#FFFFFF" d="M499.287-100.41c-1.404-23.979-12.085-40.467-31.745-49.007c-14.837-6.445-29.521-5.743-29.666-5.736
			l-0.106,0.006l-0.11-0.006c-0.146-0.008-14.828-0.709-29.665,5.736c-19.66,8.54-30.34,25.028-31.744,49.007l-3.993-0.233
			c1.872-31.969,19.673-46.196,34.276-52.5c15.173-6.551,29.717-6.079,31.234-6.009c1.521-0.07,16.063-0.541,31.234,6.009
			c14.604,6.305,32.406,20.531,34.277,52.5L499.287-100.41z"/>
	</g>
</g>
<g id="Calque_2">
</g>
</svg>
